<!DOCTYPE svg PUBLIC "-//W3C//DTD SVG 1.1//EN" "http://www.w3.org/Graphics/SVG/1.1/DTD/svg11.dtd">
<!-- Uploaded to: SVG Repo, www.svgrepo.com, Transformed by: SVG Repo Mixer Tools -->
<svg fill="#000000" width="800px" height="800px" viewBox="0 0 24 24" id="down-sign" data-name="Flat Color" xmlns="http://www.w3.org/2000/svg" class="icon flat-color" stroke="#000000" transform="rotate(0)" stroke-width="0.72">
<g id="SVGRepo_bgCarrier" stroke-width="0"/>
<g id="SVGRepo_tracerCarrier" stroke-linecap="round" stroke-linejoin="round"/>
<g id="SVGRepo_iconCarrier">
<path id="primary" d="M2.51,14.87l9,5a1,1,0,0,0,1,0l9-5A1,1,0,0,0,22,14V5a1,1,0,0,0-.49-.86,1,1,0,0,0-1,0L12,8.86,3.49,4.13A1,1,0,0,0,3,4a1,1,0,0,0-.51.14A1,1,0,0,0,2,5v9A1,1,0,0,0,2.51,14.87Z" style="fill: #dc2627;"/>
</g>
</svg>